# xmcd
#
# Track frame offsets: 
#        150
#        11839
#        21037
#        41503
#        56169
#        68080
#        83094
#        91696
#        107720
#        120253
#        132247
#        148649
#
# Disc length: 2215 seconds
#
# Revision: 0
# Processed by: cddbd v1.5.2PL0 Copyright (c) Steve Scherf et al.
# Submitted via: ExactAudioCopy v0.99pb4
#
DISCID=9508a50c
DTITLE=Bryan Christianson - Beyond Dark Hollow
DYEAR=2008
DGENRE=Bluegrass
TTITLE0=Dark Hollow
TTITLE1=The Angels Rejoiced
TTITLE2=The White Dove
TTITLE3=Over The Rainbow
TTITLE4=Memories Of Mother And Dad
TTITLE5=Linda Lou
TTITLE6=Home Sweet Home
TTITLE7=Propinquity
TTITLE8=The Darkest Hour Is Just Before Dawn
TTITLE9=Heartaches
TTITLE10=Aragon Mill
TTITLE11=Cora Is gone
EXTD=
EXTT0=
EXTT1=
EXTT2=
EXTT3=
EXTT4=
EXTT5=
EXTT6=
EXTT7=
EXTT8=
EXTT9=
EXTT10=
EXTT11=
PLAYORDER=
